<?xml version="1.0" encoding="utf-8"?>
<!-- Generator: Adobe Illustrator 27.0.0, SVG Export Plug-In . SVG Version: 6.00 Build 0)  -->
<svg version="1.1" id="Layer_1" xmlns="http://www.w3.org/2000/svg" xmlns:xlink="http://www.w3.org/1999/xlink" x="0px" y="0px"
	 viewBox="0 0 128 128" style="enable-background:new 0 0 128 128;" xml:space="preserve">
<style type="text/css">
	.st0{fill-rule:evenodd;clip-rule:evenodd;fill:#353535;}
	.st1{fill:#FFFFFF;}
	.st2{fill:#009F64;}
</style>
<rect y="0" class="st0" width="128" height="128"/>
<g>
	<g>
		<polygon class="st1" points="49.9,49.6 61.2,19.2 38.2,32.4 49.9,49.6 		"/>
		<polygon class="st1" points="64.2,70.6 84.2,59 84.2,32.4 64.2,70.6 		"/>
		<polygon class="st2" points="49.9,49.6 49.9,49.6 38.2,54.2 38.2,59 61.2,72.3 64.2,70.6 		"/>
		<polygon class="st2" points="61.2,19.2 53.9,38.7 84.2,32.4 		"/>
	</g>
	<g>
		<path class="st2" d="M26.5,104.4v-8.1c0-1-0.2-1.7-0.6-2.2c-0.4-0.5-1-0.7-1.8-0.7c-0.8,0-1.4,0.2-1.8,0.7
			c-0.4,0.5-0.7,1.2-0.7,2.2v8.1h-4.1v-8.1c0-1-0.2-1.7-0.6-2.2c-0.4-0.5-1-0.7-1.8-0.7c-0.8,0-1.4,0.2-1.8,0.7
			c-0.4,0.5-0.7,1.2-0.7,2.2v8.1H8.5V89.9h4.1V92c0.2-0.3,0.5-0.6,0.8-0.9c0.3-0.3,0.6-0.5,0.9-0.7c0.3-0.2,0.7-0.4,1.2-0.5
			c0.4-0.1,0.9-0.2,1.4-0.2c1,0,1.8,0.2,2.5,0.6c0.7,0.4,1.2,1,1.6,1.7c0.6-0.8,1.3-1.3,2.1-1.7c0.8-0.4,1.7-0.6,2.7-0.6
			c1.5,0,2.7,0.5,3.6,1.4c0.9,0.9,1.3,2.2,1.3,4v9.4H26.5z"/>
		<path class="st2" d="M41.7,104.4v-2.1c-0.2,0.3-0.5,0.6-0.8,0.9c-0.3,0.3-0.6,0.5-0.9,0.7c-0.3,0.2-0.7,0.4-1.1,0.5
			c-0.4,0.1-0.9,0.2-1.4,0.2c-1.6,0-2.8-0.5-3.6-1.4c-0.9-1-1.3-2.3-1.3-4v-9.4h4.1V98c0,1,0.2,1.7,0.6,2.2c0.4,0.5,1,0.7,1.8,0.7
			c0.8,0,1.4-0.2,1.9-0.7c0.5-0.5,0.7-1.2,0.7-2.2v-8.1h4.1v14.5H41.7z"/>
		<path class="st2" d="M47.7,104.4V84.7h4.1v19.8H47.7z"/>
		<path class="st2" d="M61.4,104.5c-0.5,0.2-1.1,0.2-1.8,0.2c-0.6,0-1.2-0.1-1.7-0.2c-0.5-0.1-1-0.4-1.3-0.7
			c-0.4-0.3-0.7-0.8-0.9-1.3c-0.2-0.6-0.3-1.2-0.3-2.1v-6.9h-1.7V90h1.7v-3.7h4.1V90h3.4v3.5h-3.4v6.2c0,0.9,0.4,1.4,1.3,1.4
			c0.7,0,1.4-0.2,2-0.5v3.3C62.5,104.1,62,104.3,61.4,104.5z"/>
		<path class="st2" d="M64.8,88.3v-3.7h4.3v3.7H64.8z M64.9,104.4V89.9H69v14.5H64.9z"/>
		<path class="st2" d="M87.7,100.4c-0.4,0.9-0.9,1.7-1.5,2.4c-0.6,0.6-1.3,1.1-2.1,1.4c-0.8,0.3-1.6,0.5-2.5,0.5
			c-1.1,0-2-0.2-2.7-0.6c-0.7-0.4-1.3-0.9-1.8-1.5v6.2H73V89.9h4.1V92c0.5-0.7,1.1-1.2,1.8-1.7c0.7-0.4,1.6-0.7,2.7-0.7
			c0.8,0,1.7,0.2,2.5,0.5c0.8,0.3,1.5,0.8,2.1,1.4c0.6,0.6,1.1,1.4,1.5,2.4c0.4,0.9,0.6,2,0.6,3.2v0.1C88.2,98.4,88,99.5,87.7,100.4
			z M84.1,97.1c0-0.6-0.1-1.1-0.3-1.6c-0.2-0.5-0.4-0.9-0.8-1.3c-0.3-0.4-0.7-0.6-1.1-0.8c-0.4-0.2-0.9-0.3-1.4-0.3
			c-0.5,0-0.9,0.1-1.4,0.3c-0.4,0.2-0.8,0.5-1.1,0.8c-0.3,0.4-0.6,0.8-0.8,1.3c-0.2,0.5-0.3,1-0.3,1.6v0.1c0,0.6,0.1,1.2,0.3,1.6
			c0.2,0.5,0.4,0.9,0.8,1.3c0.3,0.4,0.7,0.6,1.1,0.8c0.4,0.2,0.9,0.3,1.4,0.3c0.5,0,0.9-0.1,1.4-0.3c0.4-0.2,0.8-0.5,1.1-0.8
			s0.6-0.8,0.8-1.3C84,98.4,84.1,97.8,84.1,97.1L84.1,97.1z"/>
		<path class="st2" d="M98.9,104.4v-1.6c-0.5,0.6-1.1,1-1.8,1.3c-0.7,0.3-1.6,0.5-2.6,0.5c-0.7,0-1.3-0.1-1.9-0.3
			c-0.6-0.2-1.1-0.5-1.6-0.9c-0.5-0.4-0.8-0.8-1.1-1.4c-0.3-0.6-0.4-1.2-0.4-1.9v-0.1c0-0.8,0.1-1.5,0.4-2.1
			c0.3-0.6,0.7-1.1,1.2-1.4c0.5-0.4,1.1-0.7,1.8-0.9c0.7-0.2,1.5-0.3,2.4-0.3c0.7,0,1.4,0.1,1.9,0.2c0.6,0.1,1.1,0.3,1.6,0.4v-0.2
			c0-0.9-0.3-1.5-0.8-2c-0.5-0.5-1.3-0.7-2.3-0.7c-0.8,0-1.5,0.1-2.1,0.2c-0.6,0.1-1.2,0.3-1.9,0.6l-1-3.1c0.8-0.3,1.6-0.6,2.5-0.8
			c0.9-0.2,1.9-0.3,3.1-0.3c2.3,0,3.9,0.6,4.9,1.7c1,1.1,1.5,2.6,1.5,4.6v8.4H98.9z M99,98.6c-0.4-0.2-0.8-0.3-1.2-0.4
			c-0.4-0.1-0.9-0.1-1.4-0.1c-0.9,0-1.6,0.2-2.1,0.5c-0.5,0.3-0.8,0.8-0.8,1.5v0.1c0,0.6,0.2,1,0.6,1.3c0.4,0.3,1,0.5,1.6,0.5
			c1,0,1.8-0.2,2.3-0.7c0.6-0.5,0.9-1.1,0.9-1.8V98.6z"/>
		<path class="st2" d="M113.9,104.8c-0.3,0.7-0.6,1.4-0.9,1.9c-0.3,0.5-0.6,0.9-1,1.3c-0.4,0.3-0.8,0.6-1.3,0.7
			c-0.5,0.1-1,0.2-1.6,0.2c-0.8,0-1.4-0.1-2-0.3c-0.6-0.2-1.1-0.4-1.7-0.7l1.4-3c0.3,0.2,0.6,0.3,0.9,0.4c0.3,0.1,0.6,0.2,0.9,0.2
			c0.4,0,0.6-0.1,0.9-0.2c0.2-0.1,0.4-0.4,0.6-0.7l-5.7-14.6h4.4l3.3,9.9l3.2-9.9h4.3L113.9,104.8z"/>
	</g>
</g>
</svg>
